<svg width="55" height="54" viewBox="0 0 55 54" fill="none" xmlns="http://www.w3.org/2000/svg">
<path d="M50.7046 27.0286C48.8449 32.9199 45.7596 40.8129 41.5079 51.5C36.9291 49.3743 29.586 46.327 26.0545 44.5067C16.6968 39.6834 4.11832 39.1022 1.726 28.4601C0.622931 23.5531 3.66829 18.7416 9.31215 17.2718C12.8179 16.3588 20.1082 15.266 25.1931 20.4482C28.6378 23.9589 30.4628 26.886 30.489 26.2035C30.5432 24.7858 30.0327 21.2197 30.4907 18.6791C31.8045 11.3908 35.2253 3.60171 41.0248 1.88368C42.5658 1.42719 44.5797 1.3135 46.5089 1.90091C48.438 2.48832 50.2282 3.73893 51.4115 5.1842C52.5947 6.62947 53.2886 8.20233 53.4339 9.7784C53.7136 12.8136 53.1984 19.1281 50.7046 27.0286Z" stroke="#FDF9F1" stroke-width="3" stroke-linecap="round"/>
</svg>
